<svg width="172" height="119" viewBox="0 0 172 119" fill="none" xmlns="http://www.w3.org/2000/svg">
<circle opacity="0.2" cx="86" cy="66" r="32" fill="#FC9D45"/>
<g filter="url(#filter0_d_722_7002)">
<circle cx="86" cy="66" r="26" fill="#FC9D45"/>
</g>
<path d="M84.7455 57.1001H86.8061C87.2533 57.1001 87.6333 57.2649 87.9272 57.5571C88.213 57.8655 88.391 58.2528 88.391 58.6851V62.1763C88.3913 62.7584 88.8728 63.185 89.3998 63.1851H92.891C93.331 63.1851 93.7181 63.3452 94.0443 63.6265C94.3254 63.9334 94.5004 64.3174 94.5004 64.7456V66.8062C94.5004 67.2535 94.3348 67.6334 94.0424 67.9272C93.7341 68.2128 93.3475 68.391 92.9154 68.3911H89.4242C88.8419 68.3911 88.4155 68.8728 88.4154 69.3999V72.9155C88.4154 73.3609 88.2513 73.7394 87.9613 74.0327C87.6524 74.3204 87.2643 74.5004 86.8305 74.5005H84.7699C84.3223 74.5005 83.9418 74.3351 83.6479 74.0425C83.3625 73.7343 83.185 73.3474 83.185 72.9155V69.4243C83.185 68.8421 82.7032 68.4158 82.1762 68.4155H78.685C78.2373 68.4155 77.8568 68.2502 77.5629 67.9575C77.2776 67.6493 77.1001 67.2624 77.1 66.8306V64.77C77.1 64.3226 77.2646 63.9418 77.557 63.6479C77.8654 63.3623 78.2529 63.1851 78.685 63.1851H82.1518C82.7339 63.1849 83.1603 62.7033 83.1606 62.1763V58.6851C83.1606 58.2376 83.3251 57.8569 83.6176 57.563C83.9259 57.2774 84.3134 57.1001 84.7455 57.1001Z" fill="#573353" stroke="#FC9D45"/>
<defs>
<filter id="filter0_d_722_7002" x="0" y="0" width="172" height="172" filterUnits="userSpaceOnUse" color-interpolation-filters="sRGB">
<feFlood flood-opacity="0" result="BackgroundImageFix"/>
<feColorMatrix in="SourceAlpha" type="matrix" values="0 0 0 0 0 0 0 0 0 0 0 0 0 0 0 0 0 0 127 0" result="hardAlpha"/>
<feOffset dy="20"/>
<feGaussianBlur stdDeviation="30"/>
<feColorMatrix type="matrix" values="0 0 0 0 0.816667 0 0 0 0 0.495169 0 0 0 0 0.197361 0 0 0 0.5 0"/>
<feBlend mode="normal" in2="BackgroundImageFix" result="effect1_dropShadow_722_7002"/>
<feBlend mode="normal" in="SourceGraphic" in2="effect1_dropShadow_722_7002" result="shape"/>
</filter>
</defs>
</svg>
